<svg class="main-svg" xmlns="http://www.w3.org/2000/svg" xmlns:xlink="http://www.w3.org/1999/xlink" width="700" height="500" style="" viewBox="0 0 700 500"><rect x="0" y="0" width="700" height="500" style="fill: rgb(255, 255, 255); fill-opacity: 1;"/><defs id="defs-5a01a4"><g class="clips"/><g class="gradients"/><g class="patterns"/></defs><g class="bglayer"/><g class="layer-below"><g class="imagelayer"/><g class="shapelayer"/></g><g class="cartesianlayer"/><g class="polarlayer"/><g class="smithlayer"/><g class="ternarylayer"/><g class="geolayer"/><g class="funnelarealayer"/><g class="pielayer"/><g class="iciclelayer"/><g class="treemaplayer"/><g class="sunburstlayer"/><g class="glimages"/><defs id="topdefs-5a01a4"><g class="clips"/></defs><g class="indicatorlayer"><g class="trace"><g class="numbers"/><g class="angular" transform="translate(350,395)"><g class="bg-arc"><path d="M-270,-3.3065463576978534e-14A270,270 0 0,1 270,0L202.5,0A202.5,202.5 0 0,0 -202.5,-2.4799097682733902e-14Z" style="stroke: rgb(255, 255, 255); stroke-opacity: 1; fill: rgb(255, 255, 255); fill-opacity: 1; stroke-width: 0;"/></g><g class="bg-arc"><path d="M-270,-3.3065463576978534e-14A270,270 0 0,1 -218.43458848123578,-158.70201811896777L-163.82594136092683,-119.02651358922583A202.5,202.5 0 0,0 -202.5,-2.4799097682733902e-14Z" style="stroke: rgb(68, 68, 68); stroke-opacity: 1; fill: rgb(46, 139, 87); fill-opacity: 1; stroke-width: 0;"/></g><g class="bg-arc"><path d="M-218.43458848123578,-158.70201811896777A270,270 0 0,1 -83.43458848123578,-256.7852593996915L-62.575941360926834,-192.5889445497686A202.5,202.5 0 0,0 -163.82594136092683,-119.02651358922583Z" style="stroke: rgb(68, 68, 68); stroke-opacity: 1; fill: rgb(154, 205, 50); fill-opacity: 1; stroke-width: 0;"/></g><g class="bg-arc"><path d="M-83.43458848123578,-256.7852593996915A270,270 0 0,1 83.4345884812358,-256.7852593996914L62.57594136092686,-192.5889445497686A202.5,202.5 0 0,0 -62.575941360926834,-192.5889445497686Z" style="stroke: rgb(68, 68, 68); stroke-opacity: 1; fill: rgb(255, 215, 0); fill-opacity: 1; stroke-width: 0;"/></g><g class="bg-arc"><path d="M83.4345884812358,-256.7852593996914A270,270 0 0,1 218.4345884812358,-158.70201811896774L163.82594136092686,-119.02651358922581A202.5,202.5 0 0,0 62.57594136092686,-192.5889445497686Z" style="stroke: rgb(68, 68, 68); stroke-opacity: 1; fill: rgb(220, 20, 60); fill-opacity: 1; stroke-width: 0;"/></g><g class="bg-arc"><path d="M218.4345884812358,-158.70201811896774A270,270 0 0,1 270,0L202.5,0A202.5,202.5 0 0,0 163.82594136092686,-119.02651358922581Z" style="stroke: rgb(68, 68, 68); stroke-opacity: 1; fill: rgb(139, 0, 0); fill-opacity: 1; stroke-width: 0;"/></g><g class="bg-arc"><path d="M269.1279524506326,-21.682832142734963A270,270 0 0,1 269.1279524506326,-21.682832142734963L201.84596433797446,-16.26212410705122A202.5,202.5 0 0,0 201.84596433797446,-16.26212410705122Z" style="stroke: rgb(0, 0, 0); stroke-opacity: 1; fill: rgb(0, 0, 0); fill-opacity: 1; stroke-width: 3;"/></g><g class="value-arc"><path d="M0,0Z" style="stroke: rgb(68, 68, 68); stroke-opacity: 1; fill: rgb(0, 128, 0); fill-opacity: 1; stroke-width: 0;"/></g><g class="gauge-outline"><path d="M-270,-3.3065463576978534e-14A270,270 0 0,1 270,0L202.5,0A202.5,202.5 0 0,0 -202.5,-2.4799097682733902e-14Z" style="stroke: rgb(255, 255, 255); stroke-opacity: 1; fill: rgb(0, 0, 0); fill-opacity: 0; stroke-width: 1;"/></g></g><g class="angularaxis crisp"><path class="xangularaxistick ticks crisp" d="M0.5,0h5" transform="translate(80,394.99999999999994)rotate(-180)" style="stroke: rgb(68, 68, 68); stroke-opacity: 1; stroke-width: 3px;"/><path class="xangularaxistick ticks crisp" d="M0.5,0h5" transform="translate(131.56541151876422,236.29798188103223)rotate(-144)" style="stroke: rgb(68, 68, 68); stroke-opacity: 1; stroke-width: 3px;"/><path class="xangularaxistick ticks crisp" d="M0.5,0h5" transform="translate(266.5654115187642,138.21474060030852)rotate(-108)" style="stroke: rgb(68, 68, 68); stroke-opacity: 1; stroke-width: 3px;"/><path class="xangularaxistick ticks crisp" d="M0.5,0h5" transform="translate(433.4345884812358,138.21474060030857)rotate(-72)" style="stroke: rgb(68, 68, 68); stroke-opacity: 1; stroke-width: 3px;"/><path class="xangularaxistick ticks crisp" d="M0.5,0h5" transform="translate(568.4345884812358,236.29798188103226)rotate(-36)" style="stroke: rgb(68, 68, 68); stroke-opacity: 1; stroke-width: 3px;"/><path class="xangularaxistick ticks crisp" d="M0.5,0h5" transform="translate(620,395)rotate(0)" style="stroke: rgb(68, 68, 68); stroke-opacity: 1; stroke-width: 3px;"/><path class="xangularaxistick ticks crisp" d="M0.5,0h5" transform="translate(619.1279524506326,373.317167857265)rotate(-4.606200000000006)" style="stroke: rgb(68, 68, 68); stroke-opacity: 1; stroke-width: 3px;"/><g class="xangularaxistick"><text text-anchor="end" x="-10.5" y="8.749999999999998" transform="translate(80,394.99999999999994)" style="font-family: Arial; font-size: 25px; fill: rgb(0, 0, 0); fill-opacity: 1; white-space: pre; opacity: 1;">0</text></g><g class="xangularaxistick"><text text-anchor="end" x="-8.494678440936948" y="-2.0317727097525458" transform="translate(131.56541151876422,236.29798188103223)" style="font-family: Arial; font-size: 25px; fill: rgb(0, 0, 0); fill-opacity: 1; white-space: pre; opacity: 1;">20</text></g><g class="xangularaxistick"><text text-anchor="end" x="-3.244678440936947" y="-12.037477301794093" transform="translate(266.5654115187642,138.21474060030852)" style="font-family: Arial; font-size: 25px; fill: rgb(0, 0, 0); fill-opacity: 1; white-space: pre; opacity: 1;">40</text></g><g class="xangularaxistick"><text text-anchor="start" x="3.2446784409369482" y="-12.03747730179409" transform="translate(433.4345884812358,138.21474060030857)" style="font-family: Arial; font-size: 25px; fill: rgb(0, 0, 0); fill-opacity: 1; white-space: pre; opacity: 1;">60</text></g><g class="xangularaxistick"><text text-anchor="start" x="8.494678440936948" y="-2.031772709752543" transform="translate(568.4345884812358,236.29798188103226)" style="font-family: Arial; font-size: 25px; fill: rgb(0, 0, 0); fill-opacity: 1; white-space: pre; opacity: 1;">80</text></g><g class="xangularaxistick"><text text-anchor="start" x="10.5" y="8.75" transform="translate(620,395)" style="font-family: Arial; font-size: 25px; fill: rgb(0, 0, 0); fill-opacity: 1; white-space: pre; opacity: 1;">100</text></g><g class="xangularaxistick"><text text-anchor="start" x="10.466087039746824" y="7.476984021224606" transform="translate(619.1279524506326,373.317167857265)" style="font-family: Arial; font-size: 25px; fill: rgb(0, 0, 0); fill-opacity: 1; white-space: pre; opacity: 1;"> z</text></g></g><text class="title" text-anchor="start" x="0" y="0" style="font-family: Arial; font-size: 30px; fill: rgb(0, 0, 0); fill-opacity: 1; white-space: pre;" transform="translate(80,120.984375)">Empreinte carbone (% du budget quotiden)</text></g></g><g class="layer-above"><g class="imagelayer"/><g class="shapelayer"/></g><g class="infolayer"><g class="g-gtitle"/></g></svg>